<svg width="257" height="56" viewBox="0 0 257 56" fill="none" xmlns="http://www.w3.org/2000/svg">
<g clip-path="url(#clip0_576_3351)">
<path d="M2.12823 44.8675C0.914403 44.8675 0 43.9566 0 42.7455V42.4166L5.16205 12.9982C6.99581 2.63835 12.6951 0.556244 21.299 0.556244C27.1011 0.556244 29.5954 0.963044 32.0056 1.35521C34.0059 1.68592 34.0812 2.90047 33.9199 3.92332L33.3056 7.511C32.982 9.27849 31.7339 9.64889 30.7466 9.64889H19.343C16.8306 9.64889 15.8931 10.1949 15.304 13.4317L14.4962 18.0007H28.1742C28.4779 18.0007 29.4024 18.0007 29.9935 18.7057C30.5555 19.3779 30.4023 20.2092 30.3369 20.5615L29.6121 24.5741C29.2939 26.3327 28.0484 26.6976 27.0576 26.6976H12.9477L10.1641 42.7291C9.9445 43.9325 8.8215 44.867 7.60676 44.867H2.12823V44.8675Z" fill="#C2D500"/>
<path d="M33.9861 44.8675C33.1177 44.8675 32.6093 44.4914 32.3336 44.1752C32.0474 43.8463 31.7338 43.25 31.8725 42.2919L38.976 2.13076C39.2197 0.795124 40.1542 0 41.4767 0H46.674C47.4355 0 48.0191 0.243823 48.4108 0.719216C48.8086 1.19991 48.9291 1.82731 48.7778 2.58805L41.6858 42.6806C41.3534 44.49 40.1416 44.8677 39.1852 44.8677H33.9861V44.8675Z" fill="#C2D500"/>
<path d="M102.103 55.3538C101.374 55.3538 100.754 55.0863 100.358 54.5967C100.078 54.253 99.7882 53.6494 99.9823 52.7295L107.082 12.335C107.41 10.6939 108.352 10.1607 109.869 9.78296C113.896 8.79632 118.58 8.20898 122.403 8.20898C130.556 8.20898 135.422 12.926 135.422 20.8333C135.422 21.8672 135.318 23.0834 135.112 24.4442L134.335 29.0314C132.552 39.7018 126.666 44.8946 116.338 44.8946C114.957 44.8946 113.28 44.7916 111.675 44.6109L110.171 53.1811C110.074 53.7253 109.78 55.3536 107.573 55.3536L102.103 55.3538ZM113.215 35.8614C114.704 36.0188 116.467 36.1145 117.47 36.1145C121.156 36.1145 123.273 33.7379 124.138 28.6337L124.911 24.0684C125.139 22.8286 125.248 21.7243 125.248 20.7737C125.248 17.976 124.209 16.9872 121.274 16.9872C119.639 16.9872 117.735 17.0991 116.477 17.2548L113.215 35.8614Z" fill="#C2D500"/>
<path d="M149.576 44.8946C142.864 44.8946 138.696 40.4176 138.696 33.2172C138.696 31.8488 138.839 30.1934 139.126 28.2993L139.843 24.0682C141.526 13.9924 148.107 8.2088 157.896 8.2088C161.721 8.2088 166.19 8.80144 169.859 9.79009C170.688 10.0215 172.404 10.4967 172.031 12.7324L166.859 42.2505C166.633 43.4722 165.495 44.4194 164.256 44.4194H159.5C158.821 44.4194 158.223 44.1572 157.822 43.6747C157.595 43.4036 157.444 43.0748 157.376 42.7221C154.866 44.1951 152.341 44.8946 149.576 44.8946ZM156.768 16.987C152.951 16.987 150.939 19.2263 150.041 24.4713L149.148 29.4561C148.81 31.3646 148.81 32.3748 148.81 33.0383C148.81 35.6119 149.852 36.1145 151.657 36.1145C153.418 36.1145 155.502 35.4423 158.007 34.0578L160.968 17.2025C159.813 17.0739 158.206 16.987 156.768 16.987Z" fill="#C2D500"/>
<path d="M185.364 44.8946C184.688 44.8946 178.641 44.8565 174.344 43.6656C172.626 43.1393 172.447 41.9123 172.595 40.9723L173.253 37.3865C173.562 35.6967 174.812 35.4419 175.535 35.4419C175.674 35.4419 175.827 35.4509 175.992 35.4727C178.788 35.827 183.658 36.1142 185.364 36.1142C188.991 36.1142 189.281 35.1924 189.281 33.9887C189.281 33.7555 189.281 33.1429 187.821 32.1144L181.593 27.8581C178.357 25.6495 176.204 23.1953 176.204 18.402C176.204 12.0185 181.34 8.20862 189.94 8.20862C193.711 8.20862 197.449 8.65145 200.751 9.4881C201.662 9.73577 202.808 10.2816 202.464 12.2117L201.871 15.5861C201.608 17.435 200.35 17.717 199.623 17.717C199.489 17.717 199.342 17.7059 199.183 17.6879C197.672 17.4657 193.288 16.9867 189.94 16.9867C186.556 16.9867 186.556 17.762 186.556 18.2285C186.556 18.7887 186.556 19.0958 187.826 19.9725L194.774 24.7078C198.171 27.0286 199.688 29.6311 199.688 33.1553C199.688 40.3943 194.2 44.8946 185.364 44.8946Z" fill="#C2D500"/>
<path d="M215.602 44.8946C214.926 44.8946 208.88 44.8565 204.585 43.6656C202.871 43.1393 202.688 41.9123 202.835 40.9762L203.493 37.3849C203.801 35.6967 205.055 35.4419 205.775 35.4419C205.914 35.4419 206.066 35.4509 206.235 35.4727C209.029 35.827 213.899 36.1142 215.602 36.1142C219.23 36.1142 219.521 35.1924 219.521 33.9887C219.521 33.7555 219.521 33.1429 218.06 32.1144L211.838 27.8581C208.601 25.6495 206.445 23.1953 206.445 18.402C206.445 12.0185 211.58 8.20862 220.178 8.20862C223.95 8.20862 227.692 8.65145 230.993 9.4881C231.905 9.73577 233.052 10.2816 232.708 12.2117L232.113 15.5861C231.849 17.4368 230.593 17.717 229.867 17.717C229.728 17.717 229.585 17.7059 229.421 17.6879C227.913 17.4657 223.531 16.9867 220.178 16.9867C216.793 16.9867 216.793 17.762 216.793 18.2285C216.793 18.7887 216.793 19.0958 218.064 19.9725L225.015 24.7078C228.415 27.0286 229.931 29.6311 229.931 33.1553C229.931 40.3943 224.441 44.8946 215.602 44.8946Z" fill="#C2D500"/>
<path d="M69.8509 14.4109C69.5438 14.4109 69.2293 14.3823 68.929 14.3253C68.6215 14.2613 68.3283 14.1683 68.0425 14.0546C67.7566 13.9331 67.4778 13.7908 67.2203 13.6196C66.9631 13.4488 66.7199 13.249 66.4982 13.0281C66.2839 12.8144 66.0836 12.5722 65.9122 12.3085C65.7405 12.059 65.5978 11.7809 65.4763 11.496C65.3549 11.211 65.269 10.9117 65.2044 10.6123C65.1402 10.3057 65.1116 9.99918 65.1116 9.6928C65.1116 9.37929 65.1402 9.07272 65.2044 8.76598C65.269 8.46673 65.3549 8.16748 65.4763 7.88232C65.5978 7.59734 65.7405 7.32626 65.9122 7.06982C66.0836 6.80606 66.2839 6.57119 66.4982 6.35023C66.7199 6.12927 66.9631 5.93685 67.2203 5.76564C67.4776 5.5948 67.7564 5.44517 68.0425 5.33104C68.3283 5.20995 68.6215 5.11739 68.929 5.06032C69.5363 4.93192 70.1657 4.93192 70.7804 5.06032C71.0805 5.11739 71.3737 5.20995 71.6597 5.33104C71.9456 5.44517 72.2244 5.5948 72.4817 5.76564C72.7389 5.93685 72.9822 6.12927 73.2038 6.35023C73.4181 6.57119 73.6181 6.80606 73.7898 7.06982C73.9611 7.32626 74.1116 7.59734 74.2257 7.88232C74.3472 8.1673 74.433 8.46655 74.4972 8.76598C74.5618 9.07254 74.5904 9.37911 74.5904 9.6928C74.5904 9.999 74.5618 10.3056 74.4972 10.6123C74.433 10.9116 74.3472 11.2108 74.2257 11.496C74.1116 11.7809 73.9611 12.059 73.7898 12.3085C73.6181 12.5722 73.4181 12.8144 73.2038 13.0281C72.9822 13.249 72.7389 13.4488 72.4817 13.6196C72.2244 13.7908 71.9456 13.9331 71.6597 14.0546C71.3739 14.1683 71.0807 14.2613 70.7804 14.3253C70.4729 14.3823 70.1584 14.4109 69.8509 14.4109Z" fill="#C2D500"/>
<path d="M83.2764 14.4109C82.969 14.4109 82.6545 14.3823 82.3542 14.3253C82.0467 14.2612 81.7538 14.1683 81.4676 14.0546C81.1818 13.9331 80.9033 13.7908 80.6455 13.6196C80.3883 13.4487 80.1454 13.249 79.9307 13.028C79.7091 12.8144 79.5091 12.5722 79.3374 12.3085C79.166 12.059 79.0229 11.7809 78.9015 11.496C78.787 11.211 78.6942 10.9117 78.6299 10.6123C78.5727 10.3057 78.5371 9.99917 78.5371 9.69279C78.5371 9.37927 78.5727 9.07271 78.6299 8.76596C78.6942 8.46672 78.787 8.16747 78.9015 7.88231C79.0229 7.59733 79.166 7.32625 79.3374 7.0698C79.5091 6.80604 79.7091 6.57118 79.9307 6.35022C80.1454 6.12926 80.3883 5.93683 80.6455 5.76563C80.9031 5.59479 81.1816 5.44516 81.4676 5.33102C81.7538 5.20993 82.0467 5.11738 82.3542 5.06031C83.8911 4.7468 85.5281 5.25274 86.6291 6.3504C86.8508 6.57136 87.0438 6.80622 87.2151 7.06999C87.3869 7.32643 87.5369 7.59751 87.6514 7.88249C87.7729 8.16747 87.8657 8.46672 87.9229 8.76615C87.9872 9.07271 88.0158 9.37927 88.0158 9.69297C88.0158 9.99917 87.9872 10.3057 87.9229 10.6125C87.8657 10.9117 87.7729 11.211 87.6514 11.4961C87.5369 11.7811 87.3869 12.0591 87.2151 12.3086C87.0438 12.5724 86.8434 12.8146 86.6291 13.0282C85.7498 13.9117 84.5273 14.4109 83.2764 14.4109Z" fill="#C2D500"/>
<path d="M62.3926 55.9949C59.7758 55.9949 57.6545 53.8797 57.6545 51.2711C57.6545 48.6624 59.7758 46.5474 62.3926 46.5474C85.3393 46.5474 89.5018 31.1524 91.7986 15.3843C91.9867 14.0908 92.1648 12.8689 92.3578 11.802C92.8228 9.23441 95.2882 7.52855 97.8624 7.99206C100.437 8.45556 102.149 10.9125 101.684 13.48C101.519 14.3873 101.361 15.4782 101.177 16.7419C99.4656 28.4879 95.4592 55.9949 62.3926 55.9949Z" fill="#C2D500"/>
<path d="M71.35 41.0104C70.9144 41.0104 70.4717 40.9499 70.0323 40.8231C62.2971 38.5945 56.854 34.5702 53.8537 28.8622C49.4067 20.4011 52.3183 11.5108 52.4443 11.1365C53.2778 8.66392 55.9656 7.33359 58.4446 8.16255C60.9253 8.99316 62.261 11.6718 61.4277 14.1448C61.4203 14.168 59.6943 19.7059 62.2863 24.5498C64.0525 27.8503 67.5437 30.2717 72.6634 31.7473C75.1773 32.4718 76.6263 35.091 75.9 37.5972C75.3002 39.6651 73.4066 41.0104 71.35 41.0104Z" fill="#C2D500"/>
<path d="M253.574 25.1465C251.611 27.0415 249.253 27.9889 246.502 27.9889C243.661 27.9889 241.267 27.0186 239.321 25.0779C237.375 23.1386 236.402 20.7514 236.402 17.9188C236.402 14.9765 237.452 12.5305 239.553 10.5799C241.527 8.75921 243.844 7.84738 246.502 7.84738C249.289 7.84738 251.669 8.83201 253.643 10.7998C255.616 12.7676 256.604 15.1405 256.604 17.9188C256.604 20.7785 255.594 23.1887 253.574 25.1465ZM240.568 12.084C238.959 13.7237 238.156 15.6686 238.156 17.9188C238.156 20.2504 238.974 22.231 240.61 23.862C242.236 25.4931 244.201 26.3078 246.502 26.3078C248.797 26.3078 250.756 25.4887 252.382 23.8491C254.009 22.1995 254.822 20.2232 254.822 17.9186C254.822 15.6768 254.013 13.7319 252.396 12.0838C250.76 10.4073 248.797 9.56952 246.502 9.56952C244.182 9.5697 242.204 10.4074 240.568 12.084ZM244.345 18.9495L243.631 23.4768H241.637L243.429 12.0575L246.879 12.0709C248.127 12.1159 249.102 12.4427 249.803 13.0516C250.503 13.6609 250.831 14.4804 250.786 15.5102C250.76 15.9938 250.613 16.4304 250.348 16.82C250.084 17.2096 249.641 17.5881 249.021 17.9552C249.605 18.439 249.911 19.124 249.937 20.0108C249.946 20.2705 249.922 20.6713 249.864 21.2131C249.805 21.7551 249.785 22.1514 249.803 22.402L249.857 23.2484L249.843 23.5037L247.849 23.4904C247.795 23.1591 247.777 22.8321 247.795 22.5096C247.804 22.1245 247.858 21.5513 247.957 20.79C248.02 20.2259 247.957 19.7915 247.768 19.4867C247.58 19.1824 247.189 19.0121 246.596 18.9762L244.345 18.9495ZM244.628 17.1491L246.084 17.1626C246.874 17.1358 247.508 16.9768 247.984 16.6858C248.46 16.3948 248.747 16.003 248.846 15.5102C248.945 14.964 248.866 14.5587 248.61 14.2944C248.354 14.0302 247.831 13.8846 247.04 13.8578L245.14 13.8444L244.628 17.1491Z" fill="#C2D500"/>
</g>
<defs>
<clipPath id="clip0_576_3351">
<rect width="256.613" height="56" fill="white"/>
</clipPath>
</defs>
</svg>
