<svg width="56" height="56" viewBox="0 0 56 56" fill="none" xmlns="http://www.w3.org/2000/svg">
<path d="M20.2525 10.3651C19.9155 10.3651 19.5705 10.3338 19.2409 10.2711C18.9036 10.2009 18.5819 10.099 18.2683 9.97412C17.9546 9.84086 17.6487 9.68472 17.3662 9.49687C17.084 9.30943 16.8171 9.09027 16.5739 8.84783C16.3388 8.61342 16.119 8.34771 15.931 8.05831C15.7426 7.78457 15.5859 7.47951 15.4527 7.16683C15.3194 6.85415 15.2252 6.52582 15.1544 6.19729C15.0839 5.86093 15.0525 5.52457 15.0525 5.18841C15.0525 4.84442 15.0839 4.50806 15.1544 4.1715C15.2252 3.84316 15.3194 3.51483 15.4527 3.20195C15.5859 2.88927 15.7426 2.59185 15.931 2.31047C16.119 2.02108 16.3388 1.76339 16.5739 1.52095C16.8171 1.27851 17.084 1.06738 17.3662 0.879536C17.6485 0.692089 17.9544 0.527921 18.2683 0.402689C18.5819 0.26983 18.9036 0.168281 19.2409 0.105665C19.9073 -0.0352216 20.5979 -0.0352216 21.2723 0.105665C21.6016 0.168281 21.9233 0.26983 22.2371 0.402689C22.5507 0.527921 22.8567 0.692089 23.1389 0.879536C23.4211 1.06738 23.6881 1.27851 23.9312 1.52095C24.1664 1.76339 24.3858 2.02108 24.5742 2.31047C24.7622 2.59185 24.9273 2.88927 25.0525 3.20195C25.1857 3.51463 25.28 3.84296 25.3504 4.1715C25.4213 4.50786 25.4527 4.84422 25.4527 5.18841C25.4527 5.52437 25.4213 5.86072 25.3504 6.19729C25.28 6.52562 25.1857 6.85395 25.0525 7.16683C24.9273 7.47951 24.7622 7.78457 24.5742 8.05831C24.3858 8.34771 24.1664 8.61342 23.9312 8.84783C23.6881 9.09027 23.4211 9.30943 23.1389 9.49687C22.8567 9.68472 22.5507 9.84086 22.2371 9.97412C21.9235 10.099 21.6018 10.2009 21.2723 10.2711C20.9349 10.3338 20.5899 10.3651 20.2525 10.3651Z" fill="#C2D500"/>
<path d="M34.9829 10.3651C34.6456 10.3651 34.3005 10.3338 33.971 10.2712C33.6336 10.2009 33.3123 10.099 32.9983 9.97414C32.6847 9.84088 32.3791 9.68474 32.0963 9.49689C31.8141 9.30945 31.5475 9.09029 31.312 8.84785C31.0689 8.61344 30.8494 8.34773 30.661 8.05833C30.473 7.78458 30.316 7.47953 30.1827 7.16685C30.0571 6.85417 29.9553 6.52584 29.8848 6.19731C29.822 5.86094 29.783 5.52459 29.783 5.18843C29.783 4.84444 29.822 4.50808 29.8848 4.17152C29.9553 3.84318 30.0571 3.51485 30.1827 3.20197C30.316 2.88929 30.473 2.59187 30.661 2.31049C30.8494 2.0211 31.0689 1.76341 31.312 1.52097C31.5475 1.27853 31.8141 1.0674 32.0963 0.879556C32.3789 0.692109 32.6845 0.527941 32.9983 0.402709C33.3123 0.26985 33.6336 0.168301 33.971 0.105685C35.6573 -0.238302 37.4535 0.316812 38.6615 1.52117C38.9047 1.7636 39.1164 2.0213 39.3045 2.31069C39.4929 2.59206 39.6575 2.88949 39.7832 3.20217C39.9164 3.51485 40.0183 3.84318 40.0811 4.17172C40.1515 4.50808 40.1829 4.84444 40.1829 5.18862C40.1829 5.52458 40.1515 5.86095 40.0811 6.19751C40.0183 6.52584 39.9164 6.85417 39.7832 7.16705C39.6575 7.47973 39.4929 7.78478 39.3045 8.05853C39.1164 8.34793 38.8966 8.61365 38.6615 8.84805C37.6967 9.8174 36.3554 10.3651 34.9829 10.3651Z" fill="#C2D500"/>
<path d="M12.0694 55.9909C9.19828 55.9909 6.87085 53.6701 6.87085 50.808C6.87085 47.9458 9.19828 45.6252 12.0694 45.6252C37.2465 45.6252 41.8136 28.7339 44.3336 11.4332C44.54 10.0139 44.7354 8.67324 44.9472 7.5026C45.4573 4.68548 48.1624 2.81382 50.9868 3.32238C53.8121 3.83093 55.6896 6.52664 55.1797 9.34376C54.9993 10.3392 54.825 11.5361 54.6233 12.9227C52.7458 25.8104 48.35 55.9909 12.0694 55.9909Z" fill="#C2D500"/>
<path d="M21.8974 39.55C21.4196 39.55 20.9338 39.4836 20.4517 39.3445C11.9647 36.8992 5.99251 32.4838 2.70064 26.221C-2.17867 16.9375 1.01596 7.18308 1.15425 6.77247C2.06876 4.0595 5.01781 2.59987 7.73778 3.50941C10.4596 4.42075 11.925 7.3597 11.0107 10.0731C11.0027 10.0985 9.10884 16.1747 11.9528 21.4895C13.8907 25.1108 17.7213 27.7675 23.3385 29.3865C26.0968 30.1815 27.6866 33.0552 26.8897 35.8051C26.2316 38.0739 24.154 39.55 21.8974 39.55Z" fill="#C2D500"/>
</svg>
