<svg width="56" height="56" viewBox="0 0 56 56" fill="none" xmlns="http://www.w3.org/2000/svg">
<path d="M20.2525 10.3651C19.9155 10.3651 19.5705 10.3338 19.2409 10.2711C18.9036 10.2009 18.5819 10.099 18.2683 9.97412C17.9546 9.84086 17.6487 9.68472 17.3662 9.49687C17.084 9.30943 16.8171 9.09027 16.5739 8.84783C16.3388 8.61342 16.119 8.34771 15.931 8.05831C15.7426 7.78457 15.5859 7.47951 15.4527 7.16683C15.3194 6.85415 15.2252 6.52582 15.1544 6.19729C15.0839 5.86093 15.0525 5.52457 15.0525 5.18841C15.0525 4.84442 15.0839 4.50806 15.1544 4.1715C15.2252 3.84316 15.3194 3.51483 15.4527 3.20195C15.5859 2.88927 15.7426 2.59185 15.931 2.31047C16.119 2.02108 16.3388 1.76339 16.5739 1.52095C16.8171 1.27851 17.084 1.06738 17.3662 0.879536C17.6485 0.692089 17.9544 0.527921 18.2683 0.402689C18.5819 0.26983 18.9036 0.168281 19.2409 0.105665C19.9073 -0.0352216 20.5979 -0.0352216 21.2723 0.105665C21.6016 0.168281 21.9233 0.26983 22.2371 0.402689C22.5507 0.527921 22.8567 0.692089 23.1389 0.879536C23.4211 1.06738 23.6881 1.27851 23.9312 1.52095C24.1664 1.76339 24.3858 2.02108 24.5742 2.31047C24.7622 2.59185 24.9273 2.88927 25.0525 3.20195C25.1857 3.51463 25.28 3.84296 25.3504 4.1715C25.4213 4.50786 25.4527 4.84422 25.4527 5.18841C25.4527 5.52437 25.4213 5.86072 25.3504 6.19729C25.28 6.52562 25.1857 6.85395 25.0525 7.16683C24.9273 7.47951 24.7622 7.78457 24.5742 8.05831C24.3858 8.34771 24.1664 8.61342 23.9312 8.84783C23.6881 9.09027 23.4211 9.30943 23.1389 9.49687C22.8567 9.68472 22.5507 9.84086 22.2371 9.97412C21.9235 10.099 21.6018 10.2009 21.2723 10.2711C20.9349 10.3338 20.5899 10.3651 20.2525 10.3651Z" fill="white"/>
<path d="M34.9829 10.3651C34.6456 10.3651 34.3005 10.3338 33.971 10.2711C33.6336 10.2009 33.3123 10.0989 32.9983 9.97411C32.6847 9.84085 32.3791 9.68471 32.0963 9.49686C31.8141 9.30942 31.5475 9.09026 31.312 8.84782C31.0689 8.61341 30.8494 8.3477 30.661 8.0583C30.473 7.78455 30.316 7.4795 30.1827 7.16682C30.0571 6.85414 29.9553 6.52581 29.8848 6.19728C29.822 5.86091 29.783 5.52456 29.783 5.1884C29.783 4.84441 29.822 4.50805 29.8848 4.17149C29.9553 3.84315 30.0571 3.51482 30.1827 3.20194C30.316 2.88926 30.473 2.59184 30.661 2.31046C30.8494 2.02107 31.0689 1.76338 31.312 1.52094C31.5475 1.2785 31.8141 1.06737 32.0963 0.879525C32.3789 0.692078 32.6845 0.52791 32.9983 0.402678C33.3123 0.26982 33.6336 0.16827 33.971 0.105654C35.6573 -0.238333 37.4535 0.316782 38.6615 1.52114C38.9047 1.76357 39.1164 2.02126 39.3045 2.31066C39.4929 2.59203 39.6575 2.88946 39.7832 3.20214C39.9164 3.51482 40.0183 3.84315 40.0811 4.17168C40.1515 4.50805 40.1829 4.84441 40.1829 5.18859C40.1829 5.52455 40.1515 5.86092 40.0811 6.19748C40.0183 6.52581 39.9164 6.85414 39.7832 7.16702C39.6575 7.4797 39.4929 7.78475 39.3045 8.0585C39.1164 8.3479 38.8966 8.61362 38.6615 8.84802C37.6967 9.81737 36.3554 10.3651 34.9829 10.3651Z" fill="white"/>
<path d="M12.0694 55.9909C9.19828 55.9909 6.87085 53.6701 6.87085 50.808C6.87085 47.9457 9.19828 45.6251 12.0694 45.6251C37.2465 45.6251 41.8136 28.7338 44.3336 11.4331C44.54 10.0138 44.7354 8.67321 44.9472 7.50257C45.4573 4.68545 48.1624 2.81379 50.9868 3.32235C53.8121 3.8309 55.6896 6.52661 55.1797 9.34373C54.9993 10.3392 54.825 11.5361 54.6233 12.9227C52.7458 25.8104 48.35 55.9909 12.0694 55.9909Z" fill="white"/>
<path d="M21.8974 39.55C21.4196 39.55 20.9338 39.4836 20.4517 39.3445C11.9647 36.8993 5.99251 32.4838 2.70064 26.221C-2.17867 16.9376 1.01596 7.18311 1.15425 6.7725C2.06876 4.05953 5.01781 2.5999 7.73778 3.50944C10.4596 4.42078 11.925 7.35973 11.0107 10.0731C11.0027 10.0986 9.10884 16.1747 11.9528 21.4895C13.8907 25.1108 17.7213 27.7676 23.3385 29.3865C26.0968 30.1815 27.6866 33.0552 26.8897 35.8051C26.2316 38.0739 24.154 39.55 21.8974 39.55Z" fill="white"/>
</svg>
