<svg width="180" height="40" viewBox="0 0 180 40" fill="none" xmlns="http://www.w3.org/2000/svg">
<g>
<path d="M1.49283 31.4721C0.641403 31.4721 0 30.8331 0 29.9836V29.7529L3.62089 9.11753C4.90717 1.85065 8.90488 0.390167 14.94 0.390167C19.0099 0.390167 20.7595 0.675515 22.4501 0.950598C23.8533 1.18257 23.906 2.03451 23.7929 2.75199L23.3621 5.26854C23.135 6.50834 22.2595 6.76816 21.5671 6.76816H13.568C11.8057 6.76816 11.1481 7.15114 10.7349 9.42161L10.1682 12.6265H19.7627C19.9756 12.6265 20.6241 12.6265 21.0388 13.121C21.433 13.5925 21.3255 14.1757 21.2797 14.4228L20.7712 17.2374C20.5481 18.4709 19.6744 18.7269 18.9794 18.7269H9.08208L7.12956 29.9721C6.97552 30.8162 6.18779 31.4717 5.33572 31.4717H1.49283V31.4721Z" fill="#C2D500"/>
<path d="M23.8393 31.4721C23.2302 31.4721 22.8736 31.2083 22.6802 30.9864C22.4794 30.7557 22.2595 30.3375 22.3568 29.6654L27.3395 1.49461C27.5104 0.557736 28.166 0 29.0936 0H32.7392C33.2734 0 33.6827 0.171028 33.9575 0.50449C34.2365 0.841673 34.3211 1.28175 34.2149 1.81537L29.2403 29.9381C29.0071 31.2072 28.1571 31.4722 27.4862 31.4722H23.8393V31.4721Z" fill="#C2D500"/>
<path d="M71.6199 38.8276C71.1082 38.8276 70.6732 38.64 70.3953 38.2965C70.1995 38.0555 69.996 37.6321 70.1322 36.9868L75.1123 8.6523C75.3424 7.50116 76.0033 7.12715 77.0674 6.8622C79.8916 6.17013 83.1775 5.75815 85.8593 5.75815C91.5777 5.75815 94.9914 9.06685 94.9914 14.6134C94.9914 15.3386 94.9183 16.1917 94.7739 17.1463L94.2289 20.3639C92.9777 27.8486 88.8495 31.491 81.6051 31.491C80.6363 31.491 79.4599 31.4188 78.334 31.292L77.2792 37.3036C77.2112 37.6853 77.0045 38.8275 75.4564 38.8275L71.6199 38.8276ZM79.4141 25.1548C80.4586 25.2652 81.6953 25.3323 82.3986 25.3323C84.9844 25.3323 86.469 23.6653 87.0763 20.085L87.618 16.8826C87.7781 16.013 87.8549 15.2384 87.8549 14.5716C87.8549 12.6092 87.1259 11.9156 85.0671 11.9156C83.9205 11.9156 82.5848 11.9941 81.7024 12.1033L79.4141 25.1548Z" fill="#C2D500"/>
<path d="M104.919 31.4911C100.211 31.4911 97.2878 28.3507 97.2878 23.3C97.2878 22.3402 97.3882 21.179 97.5891 19.8504L98.0919 16.8825C99.2727 9.81487 103.889 5.75803 110.755 5.75803C113.438 5.75803 116.573 6.17373 119.147 6.86721C119.728 7.02952 120.932 7.36285 120.671 8.93111L117.042 29.6364C116.884 30.4934 116.085 31.1577 115.217 31.1577H111.881C111.404 31.1577 110.985 30.9739 110.703 30.6354C110.544 30.4452 110.438 30.2146 110.391 29.9672C108.63 31.0004 106.859 31.4911 104.919 31.4911ZM109.964 11.9155C107.286 11.9155 105.875 13.4862 105.246 17.1653L104.619 20.6618C104.382 22.0005 104.382 22.7092 104.382 23.1745C104.382 24.9798 105.113 25.3323 106.379 25.3323C107.614 25.3323 109.076 24.8608 110.833 23.8897L112.91 12.0666C112.1 11.9764 110.973 11.9155 109.964 11.9155Z" fill="#C2D500"/>
<path d="M130.023 31.491C129.548 31.491 125.307 31.4644 122.292 30.629C121.088 30.2598 120.962 29.3992 121.066 28.7398L121.527 26.2246C121.744 25.0393 122.621 24.8605 123.128 24.8605C123.226 24.8605 123.333 24.8668 123.448 24.8821C125.41 25.1306 128.826 25.3321 130.023 25.3321C132.567 25.3321 132.77 24.6855 132.77 23.8412C132.77 23.6776 132.77 23.2479 131.746 22.5264L127.378 19.5409C125.108 17.9917 123.597 16.2702 123.597 12.908C123.597 8.43033 127.2 5.75789 133.232 5.75789C135.878 5.75789 138.499 6.06851 140.815 6.65537C141.455 6.8291 142.259 7.21196 142.017 8.56582L141.601 10.9328C141.417 12.2297 140.534 12.4275 140.025 12.4275C139.93 12.4275 139.827 12.4197 139.716 12.4071C138.656 12.2512 135.581 11.9152 133.232 11.9152C130.859 11.9152 130.859 12.4591 130.859 12.7863C130.859 13.1792 130.859 13.3947 131.75 14.0096L136.623 17.3312C139.006 18.9591 140.07 20.7846 140.07 23.2566C140.07 28.3344 136.22 31.491 130.023 31.491Z" fill="#C2D500"/>
<path d="M151.233 31.491C150.759 31.491 146.518 31.4644 143.505 30.629C142.303 30.2598 142.175 29.3992 142.278 28.7425L142.739 26.2234C142.955 25.0393 143.835 24.8605 144.34 24.8605C144.437 24.8605 144.544 24.8668 144.662 24.8821C146.622 25.1306 150.038 25.3321 151.233 25.3321C153.777 25.3321 153.982 24.6855 153.982 23.8412C153.982 23.6776 153.982 23.2479 152.957 22.5264L148.592 19.5409C146.322 17.9917 144.81 16.2702 144.81 12.908C144.81 8.43033 148.412 5.75789 154.442 5.75789C157.089 5.75789 159.713 6.06851 162.029 6.65537C162.668 6.8291 163.473 7.21196 163.232 8.56582L162.815 10.9328C162.629 12.231 161.748 12.4275 161.239 12.4275C161.141 12.4275 161.041 12.4197 160.926 12.4071C159.868 12.2512 156.795 11.9152 154.442 11.9152C152.068 11.9152 152.068 12.4591 152.068 12.7863C152.068 13.1792 152.068 13.3947 152.96 14.0096L157.835 17.3312C160.221 18.9591 161.284 20.7846 161.284 23.2566C161.284 28.3344 157.433 31.491 151.233 31.491Z" fill="#C2D500"/>
<path d="M48.9965 10.1084C48.7811 10.1084 48.5605 10.0884 48.3498 10.0484C48.1341 10.0035 47.9285 9.9383 47.728 9.85849C47.5275 9.7733 47.3319 9.67348 47.1513 9.55339C46.9709 9.43355 46.8002 9.29344 46.6448 9.13845C46.4945 8.98859 46.3539 8.81872 46.2337 8.6337C46.1133 8.4587 46.0132 8.26368 45.928 8.06378C45.8428 7.86388 45.7825 7.65397 45.7372 7.44394C45.6922 7.2289 45.6721 7.01387 45.6721 6.79896C45.6721 6.57904 45.6922 6.36401 45.7372 6.14884C45.7825 5.93894 45.8428 5.72903 45.928 5.529C46.0132 5.32911 46.1133 5.13896 46.2337 4.95908C46.3539 4.77407 46.4945 4.60932 46.6448 4.45433C46.8002 4.29934 46.9709 4.16436 47.1513 4.04427C47.3317 3.92444 47.5274 3.81948 47.728 3.73942C47.9285 3.65448 48.1341 3.58956 48.3498 3.54953C48.7758 3.45946 49.2173 3.45946 49.6485 3.54953C49.859 3.58956 50.0647 3.65448 50.2653 3.73942C50.4658 3.81948 50.6614 3.92444 50.8418 4.04427C51.0222 4.16436 51.1929 4.29934 51.3484 4.45433C51.4987 4.60932 51.6389 4.77407 51.7594 4.95908C51.8796 5.13896 51.9851 5.32911 52.0652 5.529C52.1504 5.7289 52.2106 5.93881 52.2556 6.14884C52.3009 6.36388 52.321 6.57892 52.321 6.79896C52.321 7.01374 52.3009 7.22877 52.2556 7.44394C52.2106 7.65385 52.1504 7.86375 52.0652 8.06378C51.9851 8.26368 51.8796 8.4587 51.7594 8.6337C51.6389 8.81872 51.4987 8.98859 51.3484 9.13845C51.1929 9.29344 51.0222 9.43355 50.8418 9.55339C50.6614 9.67348 50.4658 9.7733 50.2653 9.85849C50.0648 9.9383 49.8591 10.0035 49.6485 10.0484C49.4328 10.0884 49.2122 10.1084 48.9965 10.1084Z" fill="#C2D500"/>
<path d="M58.4137 10.1084C58.198 10.1084 57.9775 10.0884 57.7668 10.0484C57.5511 10.0035 57.3457 9.93829 57.145 9.85849C56.9445 9.77329 56.7491 9.67348 56.5683 9.55338C56.3879 9.43355 56.2175 9.29344 56.0669 9.13845C55.9114 8.98859 55.7712 8.81871 55.6507 8.6337C55.5305 8.45869 55.4301 8.26367 55.3449 8.06377C55.2646 7.86388 55.1995 7.65397 55.1545 7.44394C55.1143 7.2289 55.0894 7.01386 55.0894 6.79895C55.0894 6.57904 55.1143 6.364 55.1545 6.14884C55.1995 5.93893 55.2646 5.72903 55.3449 5.529C55.4301 5.3291 55.5305 5.13896 55.6507 4.95908C55.7712 4.77406 55.9114 4.60932 56.0669 4.45433C56.2175 4.29934 56.3879 4.16436 56.5683 4.04427C56.749 3.92443 56.9443 3.81948 57.145 3.73942C57.3457 3.65448 57.5511 3.58956 57.7668 3.54953C58.8449 3.32961 59.9932 3.6845 60.7655 4.45445C60.9209 4.60945 61.0563 4.77419 61.1765 4.9592C61.297 5.13909 61.4022 5.32923 61.4825 5.52913C61.5677 5.72903 61.6328 5.93893 61.673 6.14896C61.718 6.364 61.7381 6.57904 61.7381 6.79908C61.7381 7.01386 61.718 7.2289 61.673 7.44407C61.6328 7.65397 61.5677 7.86388 61.4825 8.0639C61.4022 8.2638 61.297 8.45882 61.1765 8.63383C61.0563 8.81884 60.9158 8.98872 60.7655 9.13858C60.1486 9.75828 59.2912 10.1084 58.4137 10.1084Z" fill="#C2D500"/>
<path d="M43.7649 39.2773C41.9293 39.2773 40.4414 37.7936 40.4414 35.9639C40.4414 34.134 41.9293 32.6504 43.7649 32.6504C59.8607 32.6504 62.7805 21.8517 64.3916 10.7913C64.5235 9.8839 64.6485 9.02683 64.7838 8.27844C65.11 6.47743 66.8393 5.28087 68.645 5.60599C70.4512 5.93112 71.6515 7.6545 71.3255 9.4555C71.2102 10.0919 71.0988 10.8571 70.9698 11.7435C69.7695 19.9827 66.9593 39.2773 43.7649 39.2773Z" fill="#C2D500"/>
<path d="M50.048 28.7665C49.7425 28.7665 49.4319 28.724 49.1237 28.6351C43.6979 27.0719 39.8799 24.2491 37.7754 20.2452C34.656 14.3103 36.6983 8.07417 36.7867 7.81166C37.3714 6.07724 39.2567 5.14409 40.9956 5.72556C42.7357 6.30819 43.6726 8.18708 43.088 9.92175C43.0829 9.93804 41.8722 13.8226 43.6903 17.2203C44.9293 19.5354 47.3781 21.2339 50.9693 22.2689C52.7326 22.7772 53.7491 24.6143 53.2396 26.3724C52.8189 27.8228 51.4906 28.7665 50.048 28.7665Z" fill="#C2D500"/>
<path d="M177.868 17.6388C176.491 18.9681 174.837 19.6327 172.908 19.6327C170.915 19.6327 169.235 18.952 167.871 17.5907C166.505 16.2305 165.823 14.556 165.823 12.569C165.823 10.5051 166.559 8.78947 168.033 7.42123C169.418 6.1441 171.043 5.5045 172.907 5.5045C174.862 5.5045 176.532 6.19516 177.916 7.57546C179.301 8.95575 179.993 10.6202 179.993 12.569C179.993 14.5749 179.285 16.2656 177.868 17.6388ZM168.745 8.47628C167.617 9.62639 167.053 10.9907 167.053 12.569C167.053 14.2045 167.627 15.5938 168.774 16.7379C169.915 17.882 171.293 18.4535 172.908 18.4535C174.517 18.4535 175.891 17.8789 177.032 16.7288C178.173 15.5717 178.743 14.1854 178.743 12.5689C178.743 10.9964 178.176 9.63217 177.042 8.47615C175.894 7.30011 174.517 6.71248 172.908 6.71248C171.28 6.71261 169.893 7.30024 168.745 8.47628ZM171.395 13.292L170.894 16.4677H169.495L170.752 8.45767L173.172 8.46704C174.047 8.4986 174.731 8.72788 175.223 9.155C175.714 9.58239 175.944 10.1572 175.913 10.8795C175.894 11.2188 175.791 11.525 175.605 11.7983C175.42 12.0716 175.109 12.3371 174.674 12.5946C175.084 12.9339 175.298 13.4144 175.317 14.0365C175.323 14.2187 175.306 14.4998 175.265 14.8798C175.224 15.26 175.21 15.538 175.223 15.7138L175.261 16.3074L175.251 16.4865L173.852 16.4772C173.814 16.2448 173.802 16.0154 173.814 15.7892C173.821 15.5191 173.858 15.117 173.928 14.583C173.972 14.1873 173.928 13.8826 173.796 13.6689C173.663 13.4554 173.389 13.3359 172.973 13.3108L171.395 13.292ZM171.593 12.0291L172.614 12.0386C173.169 12.0198 173.613 11.9083 173.947 11.7041C174.281 11.5 174.482 11.2252 174.552 10.8795C174.621 10.4964 174.566 10.2121 174.386 10.0267C174.207 9.84143 173.84 9.7393 173.285 9.72044L171.952 9.71107L171.593 12.0291Z" fill="#C2D500"/>
</g>
<defs>
<rect width="180" height="39.2809" fill="white"/>
</defs>
</svg>
